<svg width="666" height="207" viewBox="0 0 666 207" fill="none" xmlns="http://www.w3.org/2000/svg">
<g clip-path="url(#clip0_1_33)">
<mask id="mask0_1_33" style="mask-type:luminance" maskUnits="userSpaceOnUse" x="-58" y="-659" width="794" height="1123">
<path d="M-58 -659H735.707V463.52H-58V-659Z" fill="white"/>
</mask>
<g mask="url(#mask0_1_33)">
<path d="M167.594 156.103V171.145H175.567C178.935 171.145 181.423 170.497 183.028 169.21C184.634 167.918 185.438 165.947 185.438 163.289C185.438 158.497 182.015 156.103 175.172 156.103H167.594ZM167.594 146.393H174.699C178.015 146.393 180.416 145.879 181.903 144.851C183.391 143.827 184.132 142.13 184.132 139.759C184.132 137.549 183.326 135.963 181.707 135.002C180.086 134.043 177.526 133.565 174.028 133.565H167.594V146.393ZM155.354 123.533H173.318C181.503 123.533 187.443 124.699 191.14 127.027C194.839 129.358 196.687 133.062 196.687 138.142C196.687 141.587 195.878 144.418 194.26 146.63C192.64 148.841 190.487 150.166 187.806 150.617V151.01C191.46 151.827 194.103 153.353 195.719 155.587C197.34 157.827 198.148 160.798 198.148 164.513C198.148 169.775 196.244 173.879 192.444 176.83C188.64 179.775 183.476 181.249 176.948 181.249H155.354V123.533Z" fill="#ED1C24"/>
<path d="M237.904 157.247C234.034 144.799 231.856 137.76 231.37 136.127C230.881 134.497 230.533 133.208 230.322 132.26C229.454 135.629 226.968 143.957 222.86 157.247H237.904ZM245.008 181.249L240.821 167.512H219.778L215.597 181.249H202.413L222.781 123.299H237.745L258.193 181.249H245.008Z" fill="#ED1C24"/>
<path d="M289.893 181.249L275.997 135.971H275.642C276.142 145.181 276.393 151.325 276.393 154.405V181.249H265.458V123.533H282.114L295.773 167.668H296.013L310.5 123.533H327.158V181.249H315.75V153.932C315.75 152.643 315.769 151.156 315.809 149.473C315.849 147.788 316.027 143.315 316.343 136.049H315.986L301.105 181.249H289.893Z" fill="#ED1C24"/>
<path d="M369.913 157.247C366.045 144.799 363.866 137.76 363.378 136.127C362.893 134.497 362.543 133.208 362.333 132.26C361.465 135.629 358.977 143.957 354.874 157.247H369.913ZM377.018 181.249L372.834 167.512H351.794L347.609 181.249H334.422L354.794 123.299H369.755L390.203 181.249H377.018Z" fill="#ED1C24"/>
<path d="M409.707 149.158H413.655C417.523 149.158 420.379 148.51 422.22 147.221C424.063 145.931 424.984 143.906 424.984 141.142C424.984 138.406 424.043 136.458 422.162 135.298C420.28 134.142 417.366 133.565 413.416 133.565H409.707V149.158ZM409.707 159.103V181.249H397.466V123.533H414.287C422.127 123.533 427.932 124.963 431.695 127.819C435.458 130.674 437.342 135.01 437.342 140.827C437.342 144.218 436.403 147.242 434.539 149.887C432.668 152.53 430.024 154.603 426.599 156.103C435.288 169.077 440.946 177.461 443.578 181.249H429.998L416.222 159.103H409.707Z" fill="#ED1C24"/>
<path d="M476.197 181.765L472.131 181.796L471.737 127.872L452.986 128.008L452.958 124.218L494.527 123.913L494.553 127.705L475.801 127.841L476.197 181.765Z" fill="#939598"/>
<path d="M535.054 181.335L503.516 181.567L503.092 123.851L534.633 123.619L534.661 127.332L507.145 127.532L507.305 149.362L533.281 149.171L533.306 152.884L507.33 153.075L507.513 177.824L535.028 177.622L535.054 181.335Z" fill="#939598"/>
<path d="M572.352 126.148C565.116 126.2 559.436 128.56 555.312 133.221C551.188 137.885 549.154 144.241 549.213 152.296C549.274 160.53 551.281 166.913 555.234 171.434C559.19 175.96 564.812 178.194 572.102 178.14C576.942 178.106 581.388 177.454 585.434 176.189L585.458 179.741C581.652 181.112 576.892 181.817 571.182 181.858C563.077 181.918 556.674 179.348 551.978 174.145C547.282 168.94 544.898 161.642 544.828 152.249C544.786 146.38 545.862 141.2 548.054 136.71C550.245 132.218 553.414 128.741 557.57 126.278C561.721 123.812 566.562 122.56 572.09 122.517C577.721 122.476 582.769 123.492 587.233 125.565L585.642 129.21C581.414 127.134 576.986 126.114 572.352 126.148Z" fill="#939598"/>
<path d="M640.141 180.567L636.075 180.595L635.867 152.212L602.155 152.46L602.362 180.843L598.334 180.872L597.913 123.158L601.941 123.127L602.127 148.752L635.838 148.504L635.655 122.882L639.719 122.851L640.141 180.567Z" fill="#939598"/>
<path d="M78.0259 120.049L101.834 82.9968L64.7846 59.1901L40.9793 96.2435L17.1699 133.295L54.2219 157.101L91.2726 180.907L115.082 143.854L78.0259 120.049Z" fill="#939598"/>
<path d="M107.157 76.1228L83.3522 113.175L120.403 136.981L144.209 99.9294L168.016 62.8761L130.963 39.0721L93.9108 15.2641L70.1082 52.3174L107.157 76.1228Z" fill="#ED1C24"/>
<path fill-rule="evenodd" clip-rule="evenodd" d="M86.9375 93.1478C71.6108 119.344 73.4868 122.928 73.3175 122.75C70.1081 119.392 63.0215 109.91 70.1068 85.4305C75.4321 67.0305 86.7775 54.0278 105.349 47.9291C114.012 45.0811 122.616 44.9478 131.513 48.3771C128.671 63.3545 126.02 78.4878 118.005 91.7625C110.497 104.189 99.7881 113.541 86.7481 119.994C83.6895 121.505 81.9801 123.357 81.3255 126.709C79.5135 135.958 79.1921 145.226 80.5188 154.529C81.0055 157.954 82.0321 161.304 82.8295 164.776C81.4028 165.344 79.9948 165.898 78.4228 166.522C70.1801 140.634 76.5175 116.785 87.8335 93.5491C87.5335 93.4145 87.2375 93.2811 86.9375 93.1478Z" fill="white"/>
</g>
</g>
<defs>
<clipPath id="clip0_1_33">
<rect width="666" height="207" fill="white"/>
</clipPath>
</defs>
</svg>
